<?xml version="1.0" standalone="no"?>
<!DOCTYPE svg PUBLIC "-//W3C//DTD SVG 20010904//EN"
 "http://www.w3.org/TR/2001/REC-SVG-20010904/DTD/svg10.dtd">
<svg version="1.0" xmlns="http://www.w3.org/2000/svg"
 width="300.000000pt" height="300.000000pt" viewBox="0 0 300.000000 300.000000"
 preserveAspectRatio="xMidYMid meet">
<metadata>
Created by potrace 1.11, written by Peter Selinger 2001-2013
</metadata>
<g transform="translate(0.000000,300.000000) scale(0.100000,-0.100000)"
fill="#000000" stroke="none">
<path d="M1340 2495 c-96 -31 -196 -135 -241 -254 -23 -59 -31 -170 -16 -226
7 -27 2 -36 -42 -84 -139 -152 -203 -387 -178 -651 9 -94 13 -107 53 -188 41
-84 110 -159 172 -186 47 -21 44 -6 47 -199 2 -99 0 -109 -18 -119 -12 -6 -29
-19 -39 -28 -11 -10 -43 -23 -71 -29 -100 -22 -151 -42 -227 -89 -81 -50 -199
-176 -238 -255 -28 -56 -61 -152 -62 -179 0 -5 540 -8 1201 -8 l1201 0 -5 103
c-7 127 -40 296 -72 362 -35 73 -72 110 -140 141 -54 25 -73 28 -182 30 -68 2
-137 -2 -155 -7 -30 -8 -36 -6 -63 24 -88 99 -206 131 -462 130 l-122 -1 -3
41 c-4 59 8 81 55 102 98 43 236 154 293 236 47 69 68 180 68 374 1 125 -8
200 -35 295 -54 198 -157 297 -339 330 -36 6 -74 13 -85 15 -18 4 -20 13 -21
79 -2 130 -63 222 -164 245 -55 13 -55 13 -110 -4z"/>
</g>
</svg>
